<svg height="24" viewBox="0 0 261 32" fill="#d3d3d3" xmlns="http://www.w3.org/2000/svg"><path d="M36.3836 16.0451C36.3836 17.1568 36.0636 17.9681 35.4237 18.4789C34.7838 18.9897 33.961 19.2451 32.9555 19.2451C32.2851 19.2451 30.6701 18.9296 28.1104 18.2986C25.5812 17.6376 22.7321 17.1268 19.563 16.7662C20.9343 18.6291 22.2141 20.1915 23.4025 21.4535C24.5909 22.6854 25.5812 23.7221 26.3735 24.5634C27.1963 25.4347 27.8362 26.2009 28.2932 26.862C28.7503 27.523 28.9789 28.2291 28.9789 28.9803C28.9789 29.7915 28.6132 30.4977 27.8819 31.0986C27.1506 31.6995 26.3735 32 25.5508 32C25.0023 32 24.4843 31.8498 23.9967 31.5493C23.5091 31.2188 23.0978 30.7681 22.7626 30.1972C22.275 29.3258 21.7875 27.9286 21.2999 26.0056C20.8428 24.0826 19.8068 21.2582 18.1918 17.5324C16.7291 21.108 15.7083 23.9474 15.1293 26.0507C14.5504 28.1239 14.0476 29.5061 13.621 30.1972C13.2248 30.7981 12.8135 31.2488 12.3869 31.5493C11.9907 31.8498 11.4727 32 10.8328 32C9.97958 32 9.18731 31.7146 8.45598 31.1437C7.75512 30.5728 7.4047 29.8516 7.4047 28.9803C7.4047 28.2592 7.618 27.5831 8.04461 26.9521C8.47122 26.3211 9.12636 25.5249 10.0101 24.5634C10.7719 23.7822 11.7774 22.7155 13.0268 21.3634C14.3066 20.0113 15.5712 18.4789 16.8205 16.7662C13.8343 17.0667 11.0461 17.5624 8.45598 18.2535C5.89633 18.9146 4.22037 19.2451 3.4281 19.2451C2.42252 19.2451 1.59978 19.0047 0.959868 18.5239C0.319956 18.0131 0 17.1869 0 16.0451C0 15.0235 0.319956 14.2423 0.959868 13.7014C1.59978 13.1305 2.42252 12.8451 3.4281 12.8451C4.34226 12.8451 5.94204 13.1606 8.22744 13.7915C10.5433 14.4225 13.4077 14.9033 16.8205 15.2338C15.6321 13.6413 14.3828 12.139 13.0725 10.7268C11.7622 9.28451 10.7414 8.18779 10.0101 7.43662C9.15684 6.53521 8.50169 5.76901 8.04461 5.13803C7.618 4.47699 7.4047 3.77089 7.4047 3.01972C7.4047 2.20845 7.77036 1.50235 8.50169 0.901408C9.23302 0.300469 10.0101 0 10.8328 0C11.3813 0 11.8841 0.150235 12.3412 0.450704C12.8287 0.751174 13.2553 1.20188 13.621 1.80282C14.0476 2.52394 14.6113 4.14648 15.3122 6.67042C16.013 9.16432 16.9729 11.7634 18.1918 14.4676C19.563 11.4028 20.5534 8.72864 21.1628 6.44507C21.8027 4.13145 22.336 2.58404 22.7626 1.80282C23.0978 1.23192 23.4939 0.796244 23.951 0.495775C24.4385 0.165258 24.9718 0 25.5508 0C26.404 0 27.181 0.285446 27.8819 0.856338C28.6132 1.42723 28.9789 2.14836 28.9789 3.01972C28.9789 4.25164 28.1257 5.6939 26.4192 7.34648C24.7433 8.99906 22.4579 11.6282 19.563 15.2338C22.854 14.8732 25.7031 14.3925 28.1104 13.7915C30.5482 13.1606 32.1632 12.8451 32.9555 12.8451C33.961 12.8451 34.7838 13.1155 35.4237 13.6563C36.0636 14.1972 36.3836 14.9934 36.3836 16.0451Z"></path><path d="M70.7966 21.1771H75.995C74.7167 28.0799 69.7739 32 62.6581 32C53.6248 32 48.3838 25.5659 48.3838 15.8935C48.3838 6.17843 53.9657 0 62.9138 0C69.7739 0 74.6741 3.92011 75.9098 10.8229H70.7114C69.7739 6.64714 66.7486 4.43143 62.7433 4.43143C57.8432 4.43143 53.9657 8.43675 53.9657 15.8935C53.9657 23.3928 57.758 27.5686 62.7007 27.5686C66.8765 27.5686 69.8592 25.3955 70.7966 21.1771Z"></path><path d="M82.4423 20.0266C82.4423 25.3103 85.2971 27.8668 88.4929 27.8668C91.6886 27.8668 94.5435 25.3103 94.5435 20.0266C94.5435 14.743 91.6886 12.1438 88.4929 12.1438C85.2971 12.1438 82.4423 14.743 82.4423 20.0266ZM88.4929 8.01065C94.0748 8.01065 99.7845 11.7603 99.7845 20.0266C99.7845 28.2929 94.0748 32 88.4929 32C82.911 32 77.2013 28.2929 77.2013 20.0266C77.2013 11.7603 82.911 8.01065 88.4929 8.01065Z"></path><path d="M118.174 11.5899V0.553929H123.245V31.4461H118.174V28.4208C116.811 30.6791 114.424 32 111.356 32C105.945 32 101.386 27.3555 101.386 19.984C101.386 12.6551 105.945 8.01065 111.356 8.01065C114.424 8.01065 116.811 9.33156 118.174 11.5899ZM118.387 19.984C118.387 14.7004 115.788 12.1438 112.464 12.1438C109.098 12.1438 106.669 15.1691 106.669 19.984C106.669 24.8415 109.098 27.8668 112.464 27.8668C115.788 27.8668 118.387 25.2676 118.387 19.984Z"></path><path d="M147.042 21.4328H129.956C130.297 25.6937 133.279 27.7816 136.177 27.7816C138.819 27.7816 140.907 26.7164 141.801 24.5859H146.787C145.721 28.2503 142.313 32 136.39 32C129.018 32 124.8 26.3755 124.8 19.8136C124.8 12.9108 129.53 8.01065 136.049 8.01065C143.08 8.01065 147.468 13.7204 147.042 21.4328ZM136.049 11.9734C133.663 11.9734 130.382 13.3795 129.956 17.7257H141.887C141.759 14.1465 139.032 11.9734 136.049 11.9734Z"></path><path d="M167.114 0.553929L172.398 24.4581L177.085 0.553929H182.752L175.551 31.4461H169.159L163.961 7.75499L158.848 31.4461H152.371L145.127 0.553929H151.007L153.479 12.4847L155.95 24.4154L160.85 0.553929H167.114Z"></path><path d="M185.68 20.0266C185.68 25.3103 188.535 27.8668 191.731 27.8668C194.927 27.8668 197.782 25.3103 197.782 20.0266C197.782 14.743 194.927 12.1438 191.731 12.1438C188.535 12.1438 185.68 14.743 185.68 20.0266ZM191.731 8.01065C197.313 8.01065 203.023 11.7603 203.023 20.0266C203.023 28.2929 197.313 32 191.731 32C186.149 32 180.439 28.2929 180.439 20.0266C180.439 11.7603 186.149 8.01065 191.731 8.01065Z"></path><path d="M217.453 8.56458V13.6778C216.601 13.5925 215.791 13.5499 215.024 13.5499C211.828 13.5499 209.996 14.8282 209.996 19.4301V31.4461H204.926V19.984V8.52197H209.911V12.6125C211.147 10.0559 213.362 8.52197 216.132 8.47936C216.515 8.47936 217.069 8.52197 217.453 8.56458Z"></path><path d="M234.435 11.5899V0.553929H239.505V31.4461H234.435V28.4208C233.071 30.6791 230.685 32 227.617 32C222.206 32 217.647 27.3555 217.647 19.984C217.647 12.6551 222.206 8.01065 227.617 8.01065C230.685 8.01065 233.071 9.33156 234.435 11.5899ZM234.648 19.984C234.648 14.7004 232.049 12.1438 228.725 12.1438C225.359 12.1438 222.93 15.1691 222.93 19.984C222.93 24.8415 225.359 27.8668 228.725 27.8668C232.049 27.8668 234.648 25.2676 234.648 19.984Z"></path><path d="M260.026 14.7856H255.254C254.7 12.6977 252.783 11.8881 250.226 11.8881C248.01 11.8881 245.965 12.8682 245.965 14.4021C245.965 15.9361 247.073 16.7457 249.033 17.1292L252.271 17.7683C256.916 18.6631 260.453 20.1119 260.453 24.5859C260.453 29.3582 255.936 32 250.738 32C245.113 32 241.363 28.8043 240.809 24.4581H245.752C246.221 26.8016 247.925 28.1651 250.908 28.1651C253.55 28.1651 255.51 27.0573 255.51 25.1824C255.51 23.3076 253.805 22.4554 251.547 22.0293L248.096 21.3475C244.218 20.5806 241.193 18.8336 241.193 14.6578C241.193 10.6099 245.539 8.01065 250.524 8.01065C254.998 8.01065 259.089 10.1838 260.026 14.7856Z"></path></svg>